<?xml version="1.0" encoding="UTF-8"?>
<svg width="180" height="180" viewBox="0 0 180 180" fill="none" xmlns="http://www.w3.org/2000/svg">
  <!-- Circle with radial gradient -->
  <circle cx="90" cy="90" r="85" fill="url(#radialGradient)"/>
  
  <!-- Trefoil symbol (♣) -->
  <path d="M90 45C76.2 45 65 56.2 65 70C65 80 75 95 90 110C105 95 115 80 115 70C115 56.2 103.8 45 90 45ZM90 75C82.8 75 77 69.2 77 62C77 54.8 82.8 49 90 49C97.2 49 103 54.8 103 62C103 69.2 97.2 75 90 75Z" fill="white" fill-rule="evenodd"/>
  
  <defs>
    <radialGradient id="radialGradient" cx="0" cy="0" r="1" gradientUnits="userSpaceOnUse" gradientTransform="translate(90 90) scale(85)">
      <stop offset="0%" stop-color="#ffcf3d"/>
      <stop offset="100%" stop-color="#fc68b4"/>
    </radialGradient>
  </defs>
</svg>
